# xmcd CD database file
#
# Track frame offsets:
#	183
#	12550
#	23855
#	38435
#	53240
#	68833
#	81445
#	94858
#	107980
#	120395
#	133128
#	146570
#	158283
#	171170
#	183860
#	197815
#	210378
#	221913
#	233740
#	245533
#	260543
#	273445
#	288028
#	301250
#	314143
#
# Disc length: 4361 seconds
#
# Revision: 0
# Processed by: cddbd v1.5.1PL2 Copyright (c) Steve Scherf et al.
# Submitted via: CDex 1.51
#
DISCID=68110719
DTITLE=Mary Lou Williams - Mary Lou Williams, 1927-1940
DYEAR=1927
DGENRE=Jazz
TTITLE0=Midnight Stomp
TTITLE1=The Bumps
TTITLE2=Down in Gallion
TTITLE3=Goose Grease
TTITLE4=Pee Wee Blues
TTITLE5=Now Cut Loose
TTITLE6=Night Life
TTITLE7=Drag 'Em
TTITLE8=Corny Rhythm
TTITLE9=Overhand (New Froggy Bottom)
TTITLE10=Isabelle
TTITLE11=Swingin' for Joy
TTITLE12=Clean Pickin'
TTITLE13=Mary's Special
TTITLE14=The Pearls
TTITLE15=Mr. Freddie's Blues
TTITLE16=Sweet (Patootie) Patunia
TTITLE17=The Rocks
TTITLE18=Little Joe from Chicago
TTITLE19=Mary Lou Williams' Blues
TTITLE20=Tea For Two
TTITLE21=Scratchin' the Gravel
TTITLE22=Zonky
TTITLE23=Baby Dear
TTITLE24=Harmony Blues
EXTD=YEAR: 1927
EXTT0=
EXTT1=
EXTT2=
EXTT3=
EXTT4=
EXTT5=
EXTT6=
EXTT7=
EXTT8=
EXTT9=
EXTT10=
EXTT11=
EXTT12=
EXTT13=
EXTT14=
EXTT15=
EXTT16=
EXTT17=
EXTT18=
EXTT19=
EXTT20=
EXTT21=
EXTT22=
EXTT23=
EXTT24=
PLAYORDER=
